<?xml version="1.0" standalone="no"?>
<!DOCTYPE svg PUBLIC "-//W3C//DTD SVG 20010904//EN"
 "http://www.w3.org/TR/2001/REC-SVG-20010904/DTD/svg10.dtd">
<svg version="1.0" xmlns="http://www.w3.org/2000/svg"
 width="351.000000pt" height="110.000000pt" viewBox="0 0 351.000000 110.000000"
 preserveAspectRatio="xMidYMid meet">
<metadata>
Created by potrace 1.16, written by Peter Selinger 2001-2019
</metadata>
<g transform="translate(0.000000,110.000000) scale(0.100000,-0.100000)"
fill="#000000" stroke="none">
<path d="M2542 907 c-61 -65 17 -164 96 -123 33 17 42 34 42 77 0 65 -92 95
-138 46z"/>
<path d="M1980 595 l0 -295 46 0 c30 0 51 5 58 15 10 13 16 12 54 -6 86 -43
206 -20 265 50 37 44 50 93 45 171 -5 85 -40 143 -108 178 -52 26 -142 30
-195 8 l-35 -15 0 95 0 94 -65 0 -65 0 0 -295z m297 5 c59 -36 63 -135 6 -180
-35 -27 -101 -27 -136 0 -57 45 -53 144 6 180 18 11 46 20 62 20 17 0 44 -9
62 -20z"/>
<path d="M310 579 l0 -281 168 4 c182 3 196 7 267 70 63 55 80 99 80 209 0 89
-2 99 -30 145 -33 53 -104 107 -163 124 -20 5 -101 10 -179 10 l-143 0 0 -281z
m316 131 c38 -24 59 -54 48 -72 -4 -7 -3 -8 4 -4 19 12 16 -109 -4 -128 -8 -9
-12 -16 -8 -16 3 0 0 -7 -7 -17 -25 -29 -91 -53 -151 -53 l-58 0 0 161 0 162
70 -6 c47 -4 83 -13 106 -27z"/>
<path d="M1525 812 c-79 -89 -165 -215 -165 -242 0 -27 45 -93 157 -234 33
-41 68 -38 108 9 l31 38 23 -31 c30 -42 55 -56 80 -42 11 5 57 58 102 117 108
140 109 147 15 269 -127 164 -135 168 -188 104 l-33 -39 -36 39 c-43 47 -60
49 -94 12z m177 -144 c60 -65 72 -92 54 -125 -22 -43 -93 -116 -108 -111 -7 3
-32 28 -55 57 -49 59 -54 93 -21 137 35 47 71 84 81 84 6 0 28 -19 49 -42z"/>
<path d="M910 583 c0 -155 9 -201 48 -244 53 -59 176 -69 243 -20 29 21 29 21
29 1 0 -17 6 -20 50 -20 l50 0 0 210 0 210 -65 0 -65 0 0 -135 c0 -131 -1
-137 -25 -160 -31 -32 -84 -34 -111 -4 -16 18 -19 40 -22 160 l-4 139 -64 0
-64 0 0 -137z"/>
<path d="M2540 511 l0 -209 61 -4 c33 -1 63 -1 65 1 2 2 4 98 4 213 l0 208
-65 0 -65 0 0 -209z"/>
<path d="M2750 714 c0 -3 30 -49 66 -101 36 -52 63 -101 60 -108 -2 -7 -31
-50 -63 -96 -33 -46 -63 -90 -67 -96 -5 -10 10 -13 67 -13 l74 0 38 55 c20 30
40 55 44 55 3 0 22 -25 41 -55 l35 -55 73 0 c39 0 72 3 72 6 0 3 -32 51 -70
105 l-70 100 62 92 c35 50 67 97 71 104 6 10 -8 13 -66 13 l-74 0 -37 -55
c-20 -30 -38 -55 -40 -55 -2 0 -20 25 -40 55 l-36 55 -70 0 c-39 0 -70 -3 -70
-6z"/>
</g>
</svg>
